<svg id="Camada_1" data-name="Camada 1" xmlns="http://www.w3.org/2000/svg" viewBox="0 0 175.85 176.53"><defs><style>.cls-1{fill:#fff;}</style></defs><title>Icones</title><path class="cls-1" d="M128.15,68.59A59.28,59.28,0,1,1,107.1,47.86l13.3-13.3a77.54,77.54,0,1,0,21,20.76Z"/><path class="cls-1" d="M105.74,91A29.38,29.38,0,1,1,77.49,69.65a29,29,0,0,1,7,.87L98.61,56.35A47.75,47.75,0,1,0,119.74,77Z"/><path class="cls-1" d="M174.22,17.66l-10.94-3.57a2.4,2.4,0,0,1-1.52-1.52L158.19,1.63A2.36,2.36,0,0,0,155.93,0a2.33,2.33,0,0,0-1.66.69L137,17.93a2.35,2.35,0,0,0-.57,2.4l1.73,5.31a2.36,2.36,0,0,1-.57,2.41L82.19,83.48a15.9,15.9,0,0,0-4.7-.77A16.33,16.33,0,1,0,93.82,99a16.09,16.09,0,0,0-1.09-5.74L147.8,38.23a2.37,2.37,0,0,1,1.67-.69,2.34,2.34,0,0,1,.74.12l5.31,1.73a2.33,2.33,0,0,0,.73.12,2.35,2.35,0,0,0,1.67-.69l17.24-17.24A2.37,2.37,0,0,0,174.22,17.66Z"/></svg>