<svg id="Camada_1" data-name="Camada 1" xmlns="http://www.w3.org/2000/svg" viewBox="0 0 189.1 148.16"><defs><style>.cls-1{fill:#fff;}</style></defs><title>Icones</title><path class="cls-1" d="M188.21,50.64,101.45,1.81a14.07,14.07,0,0,0-13.8,0L.9,50.64a1.75,1.75,0,0,0,.86,3.28h13v6.22A9.83,9.83,0,0,0,24.6,70,2.07,2.07,0,0,1,26.67,72V73.4a2.07,2.07,0,0,0,2.07,2.07,2.08,2.08,0,0,1,2.08,2.08v47a2.08,2.08,0,0,1-2.08,2.08,2.07,2.07,0,0,0-2.07,2.07V130a2.07,2.07,0,0,1-2.07,2.07,9.83,9.83,0,0,0-9.83,9.82v6.23H174.33v-6.23a9.82,9.82,0,0,0-9.82-9.82,2.08,2.08,0,0,1-2.08-2.07v-1.36a2.07,2.07,0,0,0-2.07-2.07,2.08,2.08,0,0,1-2.07-2.08v-47a2.08,2.08,0,0,1,2.07-2.08,2.07,2.07,0,0,0,2.07-2.07V72A2.08,2.08,0,0,1,164.51,70a9.83,9.83,0,0,0,9.82-9.83V53.92h13A1.75,1.75,0,0,0,188.21,50.64ZM67.44,124.53a2.08,2.08,0,0,1-2.07,2.08,2.08,2.08,0,0,0-2.08,2.07V130a2.07,2.07,0,0,1-2.07,2.07H54.64A2.07,2.07,0,0,1,52.57,130v-1.36a2.08,2.08,0,0,0-2.08-2.07,2.08,2.08,0,0,1-2.07-2.08v-47a2.08,2.08,0,0,1,2.07-2.08,2.08,2.08,0,0,0,2.08-2.07V72A2.07,2.07,0,0,1,54.64,70h6.58A2.07,2.07,0,0,1,63.29,72V73.4a2.08,2.08,0,0,0,2.08,2.07,2.08,2.08,0,0,1,2.07,2.08Zm36.62,0a2.08,2.08,0,0,1-2.07,2.08,2.08,2.08,0,0,0-2.08,2.07V130a2.07,2.07,0,0,1-2.07,2.07H91.26A2.07,2.07,0,0,1,89.19,130v-1.36a2.07,2.07,0,0,0-2.07-2.07A2.08,2.08,0,0,1,85,124.53v-47a2.08,2.08,0,0,1,2.08-2.08,2.07,2.07,0,0,0,2.07-2.07V72A2.07,2.07,0,0,1,91.26,70h6.58A2.07,2.07,0,0,1,99.91,72V73.4A2.08,2.08,0,0,0,102,75.47a2.08,2.08,0,0,1,2.07,2.08Zm36.62,0a2.07,2.07,0,0,1-2.07,2.08,2.08,2.08,0,0,0-2.08,2.07V130a2.07,2.07,0,0,1-2.07,2.07h-6.57a2.08,2.08,0,0,1-2.08-2.07v-1.36a2.07,2.07,0,0,0-2.07-2.07,2.08,2.08,0,0,1-2.08-2.08v-47a2.08,2.08,0,0,1,2.08-2.08,2.07,2.07,0,0,0,2.07-2.07V72A2.08,2.08,0,0,1,127.89,70h6.57A2.07,2.07,0,0,1,136.53,72V73.4a2.08,2.08,0,0,0,2.08,2.07,2.07,2.07,0,0,1,2.07,2.08Z"/></svg>