<svg id="Camada_1" data-name="Camada 1" xmlns="http://www.w3.org/2000/svg" viewBox="0 0 247.04 151.36"><defs><style>.cls-1{fill:#fff;}</style></defs><title>Icones</title><path class="cls-1" d="M0,59C0,26.41,30.94,0,69.1,0a76.87,76.87,0,0,1,40.37,11.18C91.54,26,80.26,47,80.26,70.27a73.75,73.75,0,0,0,14.47,43.46A79.22,79.22,0,0,1,69.1,118a79.89,79.89,0,0,1-17.68-2l-23.5,17.16A3.11,3.11,0,0,1,23,130.48L24,103.65C9.34,92.83,0,76.85,0,59Z"/><path class="cls-1" d="M247,70.27C247,35,213.57,6.46,172.29,6.46S97.55,35,97.55,70.27s33.46,63.8,74.74,63.8a86.73,86.73,0,0,0,19.13-2.18l25.84,18.87a3.11,3.11,0,0,0,4.94-2.64L221,118.58C236.93,106.88,247,89.59,247,70.27ZM146.91,79a9.35,9.35,0,1,1,9.34-9.34A9.34,9.34,0,0,1,146.91,79Zm26.59,0a9.35,9.35,0,1,1,9.34-9.34A9.34,9.34,0,0,1,173.5,79Zm26.58,0a9.35,9.35,0,1,1,9.35-9.34A9.34,9.34,0,0,1,200.08,79Z"/></svg>