<svg id="Camada_1" data-name="Camada 1" xmlns="http://www.w3.org/2000/svg" viewBox="0 0 185.28 185.3"><defs><style>.cls-1{fill:#fff;}</style></defs><title>Icones</title><path class="cls-1" d="M28.7,75.51A66.2,66.2,0,0,1,45.84,45.86L27.12,27.14A92.47,92.47,0,0,0,2.06,112l25.6-6.82A66.53,66.53,0,0,1,28.7,75.51Z"/><path class="cls-1" d="M75.49,28.72a66.59,66.59,0,0,1,34.3,0l6.83-25.57A92.41,92.41,0,0,0,30.57,23.91L49.3,42.65A66,66,0,0,1,75.49,28.72Z"/><path class="cls-1" d="M139.44,45.86a66.11,66.11,0,0,1,17.14,29.65l25.58-6.83a92.65,92.65,0,0,0-61-64.17l-6.84,25.6A66.27,66.27,0,0,1,139.44,45.86Z"/><path class="cls-1" d="M87.66,125.47a2.34,2.34,0,0,0,1.64.73h.18a2.9,2.9,0,0,0,1.64-.55l.18-.18L102.75,114a2.43,2.43,0,0,0,0-3.64,2.75,2.75,0,0,0-3.63,0L89.48,120,86,116.56a2.57,2.57,0,0,0-3.64,3.64Z"/><path class="cls-1" d="M92.64,137.23A19.3,19.3,0,0,0,111.92,118h19.41V105.77h0a10.54,10.54,0,0,0-.51-3.52c-1.52-4.44-11.45-7.69-16-9.7-2.22-1-4.72-1.59-6-2.59s-1.54-3.2-3.24-4.75c-.67-.61-2.64.15-2.8-1.07-.24-1.86,1.74-3,2.37-4.75s.23-1.53.71-3.69c3.68-1,5.33-9.68,3-9.89,1.16-6.3,2.26-15.85-2.15-18.34-.92-.52-2-.23-2.8-.65-.45-.24-.86-1.16-1.3-1.51-2.08-1.68-7.7-2.65-11-2.66a14.91,14.91,0,0,0-8.84,2.66l-4.1,2.16c-4.41,2.49-3.31,12-2.15,18.33-2.38.22-.67,8.87,3,9.92.48,2.16,0,1.9.65,3.67s2.61,2.89,2.38,4.74c-.16,1.23-2.13.47-2.81,1.08C78,86.76,77.8,88.94,76.47,90s-3.83,1.6-6,2.59c-4.52,2-14.44,5.25-16,9.7a10.3,10.3,0,0,0-.52,3.52h0V118H73.36A19.3,19.3,0,0,0,92.64,137.23Zm0-35.46A16.18,16.18,0,1,1,76.46,118,16.2,16.2,0,0,1,92.64,101.77Z"/><path class="cls-1" d="M183.23,73.28l-25.61,6.83a66.53,66.53,0,0,1-1,29.7,65.83,65.83,0,0,1-4.31,11.56l22.51,14.1a92.18,92.18,0,0,0,7.38-18.83A93.07,93.07,0,0,0,183.23,73.28Z"/><path class="cls-1" d="M139.44,139.46a66.11,66.11,0,0,1-29.65,17.14l6.83,25.57a92.56,92.56,0,0,0,55.9-42.58l-22.43-14.06A66.43,66.43,0,0,1,139.44,139.46Z"/><path class="cls-1" d="M45.84,139.46A66.16,66.16,0,0,1,28.7,109.81L3.13,116.63a91.9,91.9,0,0,0,36,51.64l14.08-22.46A66.65,66.65,0,0,1,45.84,139.46Z"/><path class="cls-1" d="M75.49,156.6a65.86,65.86,0,0,1-18.39-8.14L43.05,170.88a92,92,0,0,0,69,12.36l-6.83-25.6A66.82,66.82,0,0,1,75.49,156.6Z"/></svg>