<svg id="Camada_1" data-name="Camada 1" xmlns="http://www.w3.org/2000/svg" viewBox="0 0 126.56 209.55"><defs><style>.cls-1{fill:#fff;}</style></defs><title>Icones</title><polygon class="cls-1" points="80.26 0.16 47.06 0.07 46.88 71.38 63.43 87.57 80.08 71.47 80.26 0.16"/><polygon class="cls-1" points="36.88 0.04 20.98 0 20.86 45.95 36.72 61.45 36.88 0.04"/><polygon class="cls-1" points="90.44 0.18 90.28 61.59 106.22 46.17 106.35 0.22 90.44 0.18"/><path class="cls-1" d="M63.41,95.2a51.08,51.08,0,1,0,51,51.21A51.13,51.13,0,0,0,63.41,95.2Zm32.32,43.31L79.79,150a2.69,2.69,0,0,0-1,3l6,18.72a2.68,2.68,0,0,1-4.14,3l-15.88-11.6a2.67,2.67,0,0,0-3.15,0L45.72,174.64a2.68,2.68,0,0,1-4.12-3l6.12-18.69a2.68,2.68,0,0,0-1-3l-15.87-11.6a2.68,2.68,0,0,1,1.59-4.85l19.66,0a2.71,2.71,0,0,0,2.56-1.85L60.81,113a2.69,2.69,0,0,1,5.11,0l6,18.71a2.7,2.7,0,0,0,2.55,1.87l19.66.05A2.69,2.69,0,0,1,95.73,138.51Z"/><path class="cls-1" d="M63.44,83a63.28,63.28,0,1,0,63.12,63.45A63.28,63.28,0,0,0,63.44,83Zm-.3,119A55.68,55.68,0,1,1,119,146.42,55.74,55.74,0,0,1,63.14,202Z"/></svg>