<svg id="Camada_1" data-name="Camada 1" xmlns="http://www.w3.org/2000/svg" viewBox="0 0 217.39 218.25"><defs><style>.cls-1{fill:#fff;}</style></defs><title>Icones</title><path class="cls-1" d="M152.66,0C116.91,0,87.93,22.33,87.93,49.88c0,15.86,9.61,30,24.58,39.12a4.46,4.46,0,0,1,2.18,3.8V120a2.28,2.28,0,0,0,3.89,1.61l21.12-21.11a4.37,4.37,0,0,1,3.64-1.25,83.83,83.83,0,0,0,9.32.52c35.75,0,64.73-22.33,64.73-49.88S188.41,0,152.66,0ZM127.4,60.05c-5.31,0-9.75-4.79-9.75-10.09A10,10,0,0,1,127.4,40,9.86,9.86,0,0,1,137,50C137,55.26,132.7,60.05,127.4,60.05Zm25.34,0c-5.3,0-9.75-4.79-9.75-10.09A10,10,0,0,1,152.74,40,9.86,9.86,0,0,1,162.32,50C162.32,55.26,158.05,60.05,152.74,60.05Zm25.35,0c-5.31,0-9.75-4.79-9.75-10.09A10,10,0,0,1,178.09,40,9.86,9.86,0,0,1,187.67,50C187.67,55.26,183.39,60.05,178.09,60.05Z"/><circle class="cls-1" cx="72.45" cy="107.59" r="28.05"/><path class="cls-1" d="M29.31,218.25l5.25-19.59v19.59h75.78V198.66l5.25,19.59h29.3l-18.16-67.79a18,18,0,0,0-17.35-13.31h-15a40,40,0,0,1-43.88,0h-15a18,18,0,0,0-17.35,13.31L0,218.25Z"/></svg>