<svg id="Camada_1" data-name="Camada 1" xmlns="http://www.w3.org/2000/svg" viewBox="0 0 198.82 205.53"><defs><style>.cls-1{fill:#fff;}</style></defs><title>Icones</title><path class="cls-1" d="M95.54,76.11l4.23-10.36,33.31-.34a11.42,11.42,0,0,0,6.41-2.06l35.29-23.48a2.21,2.21,0,0,0,.4-3.19c-1.58-2.2-6.36-8.78-6.36-8.78a3.31,3.31,0,0,0-4.25-.51L136.36,46a3.23,3.23,0,0,1-2,.53l-19.24-1.08-6.34-2.75A23.46,23.46,0,0,1,84.36,32.1l-6.47-2.8h-37a18.18,18.18,0,0,0-12.33,4.82L.76,59.74a2.28,2.28,0,0,0-.27,3.09c1.37,1.83,4.09,5.5,5.49,7.31a2.43,2.43,0,0,0,3.42.35L37.54,51.73a3.31,3.31,0,0,1,1.83-.56H56a3.32,3.32,0,0,1,2.86,5L45.57,79a17.57,17.57,0,0,0,5.5,23.5l25.46,16.82a2.61,2.61,0,0,1,.51,3.91L53,150.18A3.31,3.31,0,0,0,53.5,155L64,163a3.3,3.3,0,0,0,4.35-.3l41.52-41.84a7.1,7.1,0,0,0-.67-10.6L95.93,99.9H124.6a3.41,3.41,0,0,1,1,.14l37,11a3.32,3.32,0,0,0,3.8-1.49L173,98.19a3.31,3.31,0,0,0-1.57-4.74L133.89,77.68a10.71,10.71,0,0,0-3.95-.84Z"/><circle class="cls-1" cx="104.37" cy="19.33" r="19.33"/><path class="cls-1" d="M112,205.53l9.91-3.73h7.94V123.25a1.8,1.8,0,0,1,1.8-1.8H182a1.79,1.79,0,0,1,1.79,1.8v66.17a1.8,1.8,0,0,0,1.8,1.8h13.19l-8.37,4.18H158.7l12-4.18h5.88V144.1a1.8,1.8,0,0,0-1.93-1.79l-28.8,2.16a1.79,1.79,0,0,0-1.66,1.8l.21,54.21h13l-9.53,4.86a2,2,0,0,1-.82.19Z"/></svg>