<svg id="Camada_1" data-name="Camada 1" xmlns="http://www.w3.org/2000/svg" viewBox="0 0 202.78 198.72"><defs><style>.cls-1{fill:#fff;}</style></defs><title>Icones</title><path class="cls-1" d="M101.39,0C69.23,0,40.59,11.65,22,29.81a6.14,6.14,0,0,0,3.18-.21l15.9-5.85a16.17,16.17,0,0,1,3.2-.82l42.32-6.37a7.54,7.54,0,0,1,8.49,9.1l-.17.72a7.52,7.52,0,0,1-4.21,5.22L71.5,40.42l58.62,17.52a6.54,6.54,0,0,1,4.4,8.14L134,68a6.55,6.55,0,0,1-8.14,4.4l-33.47-10s-3.07-.63-3.83,1.49,1.8,3.67,1.8,3.67L127.23,82a6.54,6.54,0,0,1,3.7,8.48l-.72,1.85A6.54,6.54,0,0,1,121.72,96L84.81,81.55s-2.64-.94-3.46,1.42a3.53,3.53,0,0,0,1.37,3.88l31.34,15.44a6.54,6.54,0,0,1,3,8.76l-.87,1.77a6.56,6.56,0,0,1-8.77,3l-36.61-18s-2.21-.52-2.92,1.27,1,3.55,1,3.55l21.39,11.94A6.54,6.54,0,0,1,83.93,126l-65-36a16.59,16.59,0,0,1-3.66-2.74L3,75A16.68,16.68,0,0,0,.31,72.93C.13,74.88,0,76.85,0,78.84c0,43.54,45.39,78.84,101.39,78.84,3.77,0,7.48-.17,11.15-.48l27.51,37.93A8.67,8.67,0,0,0,155.69,191l5.13-48.25c25.41-14.33,42-37.58,42-63.86C202.78,35.3,157.39,0,101.39,0Z"/></svg>